<svg width="27" height="27" viewBox="0 0 27 27" fill="none" xmlns="http://www.w3.org/2000/svg">
<g clip-path="url(#clip0_4132_25)">
<path d="M19.9141 0H6.09616C2.72934 0 0 2.72934 0 6.09616V19.9141C0 23.2809 2.72934 26.0103 6.09616 26.0103H19.9141C23.2809 26.0103 26.0103 23.2809 26.0103 19.9141V6.09616C26.0103 2.72934 23.2809 0 19.9141 0Z" fill="url(#paint0_radial_4132_25)"/>
<path d="M19.9141 0H6.09616C2.72934 0 0 2.72934 0 6.09616V19.9141C0 23.2809 2.72934 26.0103 6.09616 26.0103H19.9141C23.2809 26.0103 26.0103 23.2809 26.0103 19.9141V6.09616C26.0103 2.72934 23.2809 0 19.9141 0Z" fill="url(#paint1_radial_4132_25)"/>
<path d="M13.0059 2.84473C10.2466 2.84473 9.90022 2.85682 8.81652 2.90609C7.73486 2.95568 6.99652 3.12688 6.35053 3.37814C5.68218 3.63763 5.11534 3.98481 4.55064 4.54972C3.98542 5.11453 3.63824 5.68137 3.37794 6.34941C3.12596 6.9956 2.95456 7.73425 2.90589 8.81541C2.85743 9.8992 2.84473 10.2457 2.84473 13.0051C2.84473 15.7645 2.85692 16.1098 2.90609 17.1935C2.95588 18.2751 3.12708 19.0135 3.37814 19.6595C3.63784 20.3278 3.98501 20.8946 4.54992 21.4593C5.11453 22.0246 5.68137 22.3726 6.34921 22.632C6.9957 22.8833 7.73415 23.0545 8.81561 23.1041C9.8994 23.1534 10.2455 23.1655 13.0047 23.1655C15.7643 23.1655 16.1096 23.1534 17.1933 23.1041C18.2749 23.0545 19.0141 22.8833 19.6606 22.632C20.3286 22.3726 20.8946 22.0246 21.4591 21.4593C22.0244 20.8946 22.3714 20.3278 22.6318 19.6598C22.8816 19.0135 23.0531 18.2749 23.1039 17.1937C23.1526 16.11 23.1653 15.7645 23.1653 13.0051C23.1653 10.2457 23.1526 9.8994 23.1039 8.81561C23.0531 7.73395 22.8816 6.9957 22.6318 6.34971C22.3714 5.68137 22.0244 5.11453 21.4591 4.54972C20.894 3.98461 20.3288 3.63743 19.66 3.37824C19.0122 3.12688 18.2735 2.95558 17.1918 2.90609C16.108 2.85682 15.763 2.84473 13.0028 2.84473H13.0059ZM12.0944 4.67571C12.365 4.6753 12.6669 4.67571 13.0059 4.67571C15.7188 4.67571 16.0403 4.68546 17.1116 4.73413C18.1022 4.77944 18.6399 4.94495 18.998 5.08405C19.4722 5.26815 19.8102 5.48833 20.1656 5.84404C20.5212 6.19965 20.7413 6.53829 20.9259 7.01247C21.065 7.37011 21.2307 7.90779 21.2759 8.89842C21.3245 9.96951 21.3351 10.2912 21.3351 13.0028C21.3351 15.7143 21.3245 16.0361 21.2759 17.1071C21.2305 18.0977 21.065 18.6354 20.9259 18.9931C20.7418 19.4673 20.5212 19.805 20.1656 20.1604C19.81 20.516 19.4724 20.736 18.998 20.9202C18.6403 21.0599 18.1022 21.2251 17.1116 21.2704C16.0405 21.319 15.7188 21.3296 13.0059 21.3296C10.2929 21.3296 9.97134 21.319 8.90035 21.2704C7.90972 21.2246 7.37204 21.0591 7.01358 20.92C6.53951 20.7358 6.20076 20.5158 5.84515 20.1602C5.48954 19.8045 5.26947 19.4667 5.08486 18.9923C4.94577 18.6346 4.78005 18.0969 4.73494 17.1063C4.68627 16.0352 4.67652 15.7135 4.67652 13.0002C4.67652 10.2869 4.68627 9.96697 4.73494 8.89587C4.78026 7.90525 4.94577 7.36757 5.08486 7.00942C5.26907 6.53524 5.48955 6.1966 5.84526 5.84099C6.20097 5.48538 6.53951 5.26521 7.01369 5.0807C7.37184 4.94099 7.90972 4.77589 8.90035 4.73037C9.83763 4.688 10.2009 4.6753 12.0944 4.67317V4.67571ZM18.4295 6.36272C17.7563 6.36272 17.2102 6.90832 17.2102 7.58154C17.2102 8.25466 17.7563 8.80078 18.4295 8.80078C19.1026 8.80078 19.6487 8.25466 19.6487 7.58154C19.6487 6.90843 19.1026 6.36231 18.4295 6.36231V6.36272ZM13.0059 7.78729C10.1245 7.78729 7.7882 10.1235 7.7882 13.0051C7.7882 15.8866 10.1245 18.2218 13.0059 18.2218C15.8875 18.2218 18.2229 15.8866 18.2229 13.0051C18.2229 10.1236 15.8873 7.78729 13.0057 7.78729H13.0059ZM13.0059 9.61827C14.8763 9.61827 16.3927 11.1345 16.3927 13.0051C16.3927 14.8755 14.8763 16.3919 13.0059 16.3919C11.1355 16.3919 9.61918 14.8755 9.61918 13.0051C9.61918 11.1345 11.1354 9.61827 13.0059 9.61827Z" fill="white"/>
</g>
<defs>
<radialGradient id="paint0_radial_4132_25" cx="0" cy="0" r="1" gradientUnits="userSpaceOnUse" gradientTransform="translate(6.90898 28.0136) rotate(-90) scale(25.7781 23.9757)">
<stop stop-color="#FFDD55"/>
<stop offset="0.1" stop-color="#FFDD55"/>
<stop offset="0.5" stop-color="#FF543E"/>
<stop offset="1" stop-color="#C837AB"/>
</radialGradient>
<radialGradient id="paint1_radial_4132_25" cx="0" cy="0" r="1" gradientUnits="userSpaceOnUse" gradientTransform="translate(-4.35681 1.87371) rotate(78.68) scale(11.523 47.498)">
<stop stop-color="#3771C8"/>
<stop offset="0.128" stop-color="#3771C8"/>
<stop offset="1" stop-color="#6600FF" stop-opacity="0"/>
</radialGradient>
<clipPath id="clip0_4132_25">
<rect width="26.0103" height="26.0103" fill="white"/>
</clipPath>
</defs>
</svg>
