<svg width="27" height="27" viewBox="0 0 27 27" fill="none" xmlns="http://www.w3.org/2000/svg">
<g clip-path="url(#clip0_4132_32)">
<path d="M13.2652 26.5305C20.5914 26.5305 26.5305 20.5914 26.5305 13.2652C26.5305 5.93905 20.5914 0 13.2652 0C5.93905 0 0 5.93905 0 13.2652C0 20.5914 5.93905 26.5305 13.2652 26.5305Z" fill="#FF4500"/>
<path d="M22.0899 13.3918C22.0899 12.3165 21.2203 11.4624 20.1605 11.4624C19.6599 11.4618 19.1784 11.6544 18.8164 12.0002C17.488 11.0512 15.6692 10.4346 13.645 10.3555L14.5305 6.21209L17.4087 6.82872C17.4405 7.55623 18.0413 8.14146 18.7848 8.14146C19.5438 8.14146 20.1605 7.52483 20.1605 6.7654C20.1605 6.00638 19.5439 5.38965 18.7848 5.38965C18.2471 5.38965 17.7725 5.70594 17.5511 6.16463L14.3409 5.48458C14.246 5.46862 14.1511 5.48458 14.0878 5.53204C14.0087 5.57951 13.9613 5.65848 13.9457 5.75341L12.9649 10.3712C10.9091 10.4346 9.05867 11.0512 7.71453 12.016C7.35249 11.6703 6.87092 11.4777 6.37028 11.4784C5.29487 11.4784 4.44092 12.348 4.44092 13.4078C4.44092 14.1984 4.91525 14.8625 5.57966 15.1632C5.54739 15.3566 5.53151 15.5523 5.53219 15.7483C5.53219 18.7212 8.99566 21.1411 13.2655 21.1411C17.5355 21.1411 20.9989 18.7372 20.9989 15.7483C20.999 15.5523 20.9831 15.3567 20.9515 15.1632C21.6156 14.8625 22.0899 14.1824 22.0899 13.3918ZM8.83731 14.7676C8.83731 14.0085 9.45394 13.3918 10.2134 13.3918C10.9724 13.3918 11.5891 14.0084 11.5891 14.7676C11.5891 15.5267 10.9725 16.1436 10.2134 16.1436C9.45404 16.1592 8.83731 15.5267 8.83731 14.7676ZM16.5391 18.4208C15.5902 19.3698 13.7873 19.4331 13.2655 19.4331C12.7279 19.4331 10.925 19.3538 9.9917 18.4208C9.84961 18.2785 9.84961 18.057 9.9917 17.9147C10.1341 17.7726 10.3555 17.7726 10.4978 17.9147C11.0989 18.5158 12.3641 18.7212 13.2655 18.7212C14.1669 18.7212 15.4479 18.5157 16.033 17.9147C16.1754 17.7726 16.3967 17.7726 16.5391 17.9147C16.6656 18.057 16.6656 18.2785 16.5391 18.4208ZM16.2859 16.1593C15.5268 16.1593 14.9102 15.5426 14.9102 14.7835C14.9102 14.0244 15.5268 13.4078 16.2859 13.4078C17.0453 13.4078 17.6619 14.0244 17.6619 14.7835C17.6619 15.5266 17.0453 16.1593 16.2859 16.1593Z" fill="white"/>
</g>
<defs>
<clipPath id="clip0_4132_32">
<rect width="26.5305" height="26.5305" fill="white"/>
</clipPath>
</defs>
</svg>
