<svg width="29" height="29" viewBox="0 0 29 29" fill="none" xmlns="http://www.w3.org/2000/svg">
<path fill-rule="evenodd" clip-rule="evenodd" d="M5.96093 1.19189C4.69623 1.19189 3.48334 1.69429 2.58906 2.58857C1.69478 3.48285 1.19238 4.69575 1.19238 5.96044V22.6504C1.19238 23.9151 1.69478 25.128 2.58906 26.0222C3.48334 26.9165 4.69623 27.4189 5.96093 27.4189H22.6509C23.9156 27.4189 25.1285 26.9165 26.0227 26.0222C26.917 25.128 27.4194 23.9151 27.4194 22.6504V5.96044C27.4194 4.69575 26.917 3.48285 26.0227 2.58857C25.1285 1.69429 23.9156 1.19189 22.6509 1.19189H5.96093ZM14.7112 5.36438H17.5569C17.5569 7.2718 19.1686 9.42957 21.622 9.42957V12.274C19.9328 12.1572 18.4891 11.8806 17.5569 11.0544V18.3694C17.5569 20.402 15.9499 23.2464 12.2745 23.2464C7.7849 23.2464 6.99094 19.1813 6.99094 17.9629C6.99094 16.7445 7.70622 12.6793 12.6798 12.6793V15.525C11.3792 15.2496 9.83538 16.3368 9.83538 17.9629C9.83538 19.9955 11.0549 20.402 12.2745 20.402C13.4941 20.402 14.7124 19.1824 14.7124 17.9629L14.7112 5.36438Z" fill="black"/>
</svg>
